<?xml version="1.0" encoding="UTF-8" standalone="no"?>
<svg width="126px" height="66px" viewBox="0 0 126 66" version="1.1" xmlns="http://www.w3.org/2000/svg" xmlns:xlink="http://www.w3.org/1999/xlink">
    <!-- Generator: Sketch 40.1 (33804) - http://www.bohemiancoding.com/sketch -->
    <title>logo-only</title>
    <desc>Created with Sketch.</desc>
    <defs></defs>
    <g id="Page-1" stroke="none" stroke-width="1" fill="none" fill-rule="evenodd">
        <g id="V2_2B" fill="#FFFFFF">
            <g id="Group">
                <g id="Shape">
                    <path d="M34.038,17.559 C33.744,17.637 33.452,17.726 33.161,17.822 C31.633,18.331 30.348,19.195 29.254,20.377 C27.927,21.813 27.059,23.693 26.472,25.54 C25.907,27.315 25.63,29.236 25.491,31.089 L25.372,32.663 L25.372,34.445 C25.372,37.344 25.588,40.577 26.472,43.354 C27.059,45.2 27.927,47.081 29.254,48.516 C30.348,49.698 31.633,50.562 33.161,51.072 C33.451,51.169 33.744,51.257 34.038,51.336 L34.038,17.559 L34.038,17.559 Z M45.405,16.997 L38.441,16.997 C37.87,16.997 37.302,17.022 36.737,17.076 L36.737,51.818 C37.302,51.872 37.87,51.898 38.441,51.898 L45.405,51.898 L45.405,16.997 L45.405,16.997 Z M56.77,51.899 L56.77,16.998 L48.104,16.998 L48.104,51.899 L56.77,51.899 L56.77,51.899 Z"></path>
                    <path d="M10.514,37.8 C9.485,28.02 14.672,7.894 27.149,4.462 C27.738,4.273 28.249,3.352 28.594,3.03 C19.307,5.577 9.725,4.308 5.347,14.591 C2.298,21.752 2.082,28.16 1.284,33.637 L0.703,37.914 L10.514,37.8 L10.514,37.8 Z"></path>
                    <path d="M50.679,2.35 C48.413,12.103 36.277,12.103 34.01,2.35 C40.757,5.014 43.934,5.014 50.679,2.35 L50.679,2.35 Z M28.225,4.94 C12.713,9.206 7.154,37.013 14.811,53.424 C18.648,61.647 28.908,65.131 38.441,65.131 L59.482,65.131 L59.482,54.61 L38.441,54.61 C23.784,54.61 22.659,45.506 22.659,34.445 C22.659,30.979 22.784,28.183 23.887,24.718 C24.705,22.146 25.831,20.086 27.263,18.537 C28.696,16.988 30.375,15.893 32.304,15.249 C34.233,14.606 36.28,14.284 38.442,14.284 L59.483,14.284 L59.483,14.28 L68.93,14.28 L71.747,3.758 L69.128,3.758 C62.583,3.758 56.367,4.862 50.816,0.48 C47.878,3.476 36.814,3.476 33.876,0.48 C32.906,1.246 31.829,1.849 30.675,2.325 C30.674,2.326 30.295,4.277 28.225,4.94 L28.225,4.94 Z"></path>
                    <path d="M73.73,3.759 L70.914,14.281 L81.402,14.281 L99.906,14.281 L105.513,14.281 C107.559,14.281 109.312,14.865 110.773,16.034 C112.234,17.203 112.965,19.249 112.965,22.172 C112.965,25.503 112.234,27.798 110.773,29.054 C109.312,30.31 107.558,30.939 105.513,30.939 L99.906,30.939 L81.402,30.939 L69.128,30.939 L69.128,65.132 L81.402,65.132 L81.402,41.46 L97.973,41.46 L110.948,65.132 L125.151,65.132 L111.211,41.022 C113.198,40.613 115.054,39.97 116.779,39.093 C118.503,38.215 119.993,37.018 121.249,35.498 C122.506,33.979 123.485,32.123 124.187,29.931 C124.889,27.74 125.239,25.153 125.239,22.173 C125.239,18.782 124.727,15.904 123.704,13.537 C122.682,11.169 121.265,9.27 119.453,7.838 C117.641,6.406 115.536,5.369 113.14,4.726 C110.744,4.083 108.202,3.761 105.513,3.761 L81.402,3.761 L73.73,3.761 L73.73,3.759 Z"></path>
                </g>
            </g>
        </g>
    </g>
</svg>
